<svg xmlns="http://www.w3.org/2000/svg" xmlns:xlink="http://www.w3.org/1999/xlink" width="250" zoomAndPan="magnify" viewBox="0 0 187.5 37.5" height="50" preserveAspectRatio="xMidYMid meet" version="1.0"><defs><g/><clipPath id="09a93cd749"><path d="M 25 3.710938 L 64.808594 3.710938 L 64.808594 33.394531 L 25 33.394531 Z M 25 3.710938 " clip-rule="nonzero"/></clipPath><clipPath id="8270948be7"><path d="M 4.699219 3.710938 L 48 3.710938 L 48 33.394531 L 4.699219 33.394531 Z M 4.699219 3.710938 " clip-rule="nonzero"/></clipPath></defs><g clip-path="url(#09a93cd749)"><path fill="#b803a6" d="M 55.523438 3.714844 L 64.808594 3.714844 L 64.808594 33.382812 L 55.523438 33.382812 L 55.523438 16.644531 L 38.828125 33.382812 L 25.929688 33.382812 L 55.523438 3.714844 " fill-opacity="1" fill-rule="nonzero"/></g><g clip-path="url(#8270948be7)"><path fill="#7e0272" d="M 47.160156 3.714844 L 4.699219 33.382812 L 17.59375 33.382812 Z M 47.160156 3.714844 " fill-opacity="1" fill-rule="nonzero"/></g><g fill="#f4f6fc" fill-opacity="1"><g transform="translate(77.238154, 19.110122)"><g><path d="M 9.34375 -2.578125 L 3.765625 -2.578125 L 2.703125 0 L -0.15625 0 L 5.203125 -12.015625 L 7.953125 -12.015625 L 13.328125 0 L 10.40625 0 Z M 8.46875 -4.6875 L 6.5625 -9.296875 L 4.65625 -4.6875 Z M 8.46875 -4.6875 "/></g></g></g><g fill="#f4f6fc" fill-opacity="1"><g transform="translate(93.792688, 19.110122)"><g><path d="M 9.078125 0 L 6.765625 -3.34375 L 4.203125 -3.34375 L 4.203125 0 L 1.421875 0 L 1.421875 -12.015625 L 6.625 -12.015625 C 7.6875 -12.015625 8.609375 -11.835938 9.390625 -11.484375 C 10.179688 -11.128906 10.785156 -10.625 11.203125 -9.96875 C 11.628906 -9.320312 11.84375 -8.550781 11.84375 -7.65625 C 11.84375 -6.757812 11.628906 -5.988281 11.203125 -5.34375 C 10.773438 -4.695312 10.164062 -4.203125 9.375 -3.859375 L 12.078125 0 Z M 9.03125 -7.65625 C 9.03125 -8.332031 8.8125 -8.847656 8.375 -9.203125 C 7.945312 -9.566406 7.3125 -9.75 6.46875 -9.75 L 4.203125 -9.75 L 4.203125 -5.5625 L 6.46875 -5.5625 C 7.3125 -5.5625 7.945312 -5.742188 8.375 -6.109375 C 8.8125 -6.472656 9.03125 -6.988281 9.03125 -7.65625 Z M 9.03125 -7.65625 "/></g></g></g><g fill="#f4f6fc" fill-opacity="1"><g transform="translate(109.814946, 19.110122)"><g><path d="M 5.796875 -4.71875 L 4.1875 -3.046875 L 4.1875 0 L 1.421875 0 L 1.421875 -12.015625 L 4.1875 -12.015625 L 4.1875 -6.40625 L 9.515625 -12.015625 L 12.609375 -12.015625 L 7.625 -6.65625 L 12.890625 0 L 9.65625 0 Z M 5.796875 -4.71875 "/></g></g></g><g fill="#f4f6fc" fill-opacity="1"><g transform="translate(125.923046, 19.110122)"><g><path d="M 9.34375 -2.578125 L 3.765625 -2.578125 L 2.703125 0 L -0.15625 0 L 5.203125 -12.015625 L 7.953125 -12.015625 L 13.328125 0 L 10.40625 0 Z M 8.46875 -4.6875 L 6.5625 -9.296875 L 4.65625 -4.6875 Z M 8.46875 -4.6875 "/></g></g></g><g fill="#f4f6fc" fill-opacity="1"><g transform="translate(142.477583, 19.110122)"><g><path d="M 12.453125 -12.015625 L 12.453125 0 L 10.171875 0 L 4.171875 -7.296875 L 4.171875 0 L 1.421875 0 L 1.421875 -12.015625 L 3.71875 -12.015625 L 9.703125 -4.71875 L 9.703125 -12.015625 Z M 12.453125 -12.015625 "/></g></g></g><g fill="#f4f6fc" fill-opacity="1"><g transform="translate(159.753282, 19.110122)"><g><path d="M 10.734375 -2.234375 L 10.734375 0 L 1.421875 0 L 1.421875 -12.015625 L 10.515625 -12.015625 L 10.515625 -9.78125 L 4.1875 -9.78125 L 4.1875 -7.171875 L 9.765625 -7.171875 L 9.765625 -5.015625 L 4.1875 -5.015625 L 4.1875 -2.234375 Z M 10.734375 -2.234375 "/></g></g></g><g fill="#f4f6fc" fill-opacity="1"><g transform="translate(95.627566, 30.695707)"><g><path d="M 0.890625 -5.921875 L 3.375 -5.921875 C 4 -5.921875 4.554688 -5.796875 5.046875 -5.546875 C 5.535156 -5.296875 5.910156 -4.945312 6.171875 -4.5 C 6.441406 -4.050781 6.578125 -3.535156 6.578125 -2.953125 C 6.578125 -2.378906 6.441406 -1.867188 6.171875 -1.421875 C 5.910156 -0.972656 5.535156 -0.625 5.046875 -0.375 C 4.554688 -0.125 4 0 3.375 0 L 0.890625 0 Z M 3.328125 -0.734375 C 3.804688 -0.734375 4.226562 -0.828125 4.59375 -1.015625 C 4.957031 -1.203125 5.238281 -1.460938 5.4375 -1.796875 C 5.632812 -2.128906 5.734375 -2.515625 5.734375 -2.953125 C 5.734375 -3.398438 5.632812 -3.789062 5.4375 -4.125 C 5.238281 -4.457031 4.957031 -4.71875 4.59375 -4.90625 C 4.226562 -5.09375 3.804688 -5.1875 3.328125 -5.1875 L 1.734375 -5.1875 L 1.734375 -0.734375 Z M 3.328125 -0.734375 "/></g></g></g><g fill="#f4f6fc" fill-opacity="1"><g transform="translate(106.331227, 30.695707)"><g><path d="M 0.890625 -5.921875 L 1.734375 -5.921875 L 1.734375 0 L 0.890625 0 Z M 0.890625 -5.921875 "/></g></g></g><g fill="#f4f6fc" fill-opacity="1"><g transform="translate(112.672255, 30.695707)"><g><path d="M 4.984375 -3 L 5.796875 -3 L 5.796875 -0.6875 C 5.503906 -0.445312 5.160156 -0.257812 4.765625 -0.125 C 4.378906 0 3.976562 0.0625 3.5625 0.0625 C 2.957031 0.0625 2.414062 -0.0664062 1.9375 -0.328125 C 1.457031 -0.585938 1.082031 -0.945312 0.8125 -1.40625 C 0.539062 -1.863281 0.40625 -2.378906 0.40625 -2.953125 C 0.40625 -3.535156 0.539062 -4.054688 0.8125 -4.515625 C 1.082031 -4.972656 1.457031 -5.332031 1.9375 -5.59375 C 2.425781 -5.851562 2.972656 -5.984375 3.578125 -5.984375 C 4.046875 -5.984375 4.472656 -5.90625 4.859375 -5.75 C 5.242188 -5.59375 5.570312 -5.367188 5.84375 -5.078125 L 5.328125 -4.546875 C 4.847656 -5.003906 4.273438 -5.234375 3.609375 -5.234375 C 3.160156 -5.234375 2.753906 -5.132812 2.390625 -4.9375 C 2.035156 -4.75 1.753906 -4.476562 1.546875 -4.125 C 1.347656 -3.78125 1.25 -3.390625 1.25 -2.953125 C 1.25 -2.523438 1.347656 -2.140625 1.546875 -1.796875 C 1.753906 -1.453125 2.035156 -1.179688 2.390625 -0.984375 C 2.753906 -0.785156 3.15625 -0.6875 3.59375 -0.6875 C 4.125 -0.6875 4.585938 -0.8125 4.984375 -1.0625 Z M 4.984375 -3 "/></g></g></g><g fill="#f4f6fc" fill-opacity="1"><g transform="translate(122.919369, 30.695707)"><g><path d="M 0.890625 -5.921875 L 1.734375 -5.921875 L 1.734375 0 L 0.890625 0 Z M 0.890625 -5.921875 "/></g></g></g><g fill="#f4f6fc" fill-opacity="1"><g transform="translate(129.260395, 30.695707)"><g><path d="M 2.0625 -5.1875 L 0.03125 -5.1875 L 0.03125 -5.921875 L 4.921875 -5.921875 L 4.921875 -5.1875 L 2.90625 -5.1875 L 2.90625 0 L 2.0625 0 Z M 2.0625 -5.1875 "/></g></g></g><g fill="#f4f6fc" fill-opacity="1"><g transform="translate(137.94338, 30.695707)"><g><path d="M 4.65625 -1.484375 L 1.515625 -1.484375 L 0.859375 0 L -0.015625 0 L 2.671875 -5.921875 L 3.515625 -5.921875 L 6.203125 0 L 5.3125 0 Z M 4.359375 -2.15625 L 3.078125 -5.0625 L 1.8125 -2.15625 Z M 4.359375 -2.15625 "/></g></g></g><g fill="#f4f6fc" fill-opacity="1"><g transform="translate(147.852297, 30.695707)"><g><path d="M 0.890625 -5.921875 L 1.734375 -5.921875 L 1.734375 -0.734375 L 4.9375 -0.734375 L 4.9375 0 L 0.890625 0 Z M 0.890625 -5.921875 "/></g></g></g></svg>